<svg width="11" height="29" viewBox="0 0 11 29" fill="none" xmlns="http://www.w3.org/2000/svg">
<path d="M1.968 26.208C1.968 25.152 2.672 24.24 3.792 24.24C4.992 24.24 5.648 25.152 5.648 26.016C5.648 27.04 4.896 27.68 4.144 27.808C4.096 27.808 4.064 27.824 4.064 27.856C4.064 27.872 4.096 27.888 4.112 27.904C4.144 27.904 4.48 27.984 4.864 27.984C6.48 27.984 7.344 27.104 7.344 25.44C7.344 24.592 7.152 23.472 6.848 21.936C6.48 22 6.048 22.048 5.584 22.048C2.608 22.048 0 19.696 0 16.704C0 13.504 2.016 11.552 3.472 10.208C3.808 9.936 4.64 9.088 4.656 9.072C4.384 7.28 4.304 6.496 4.304 5.632C4.304 4.288 4.592 2.24 5.616 1.024C6.144 0.4 6.64 0.207998 6.752 0.207998C7.04 0.207998 7.504 0.768 7.888 1.584C8.144 2.16 8.592 3.344 8.592 4.8C8.592 7.344 7.424 9.344 5.744 11.12C5.872 12.016 6.032 12.96 6.192 13.92C8.528 13.92 10.24 15.552 10.24 17.968C10.24 19.616 9.072 21.248 7.504 21.76C7.6 22.384 7.696 22.864 7.744 23.184C7.904 24.096 8 24.816 8 25.44C8 26.448 7.776 27.504 6.912 28.112C6.336 28.464 5.68 28.656 4.928 28.656C2.768 28.656 1.968 27.264 1.968 26.208ZM5.312 4.848C5.184 5.344 5.136 5.888 5.136 6.48C5.136 7.152 5.216 7.776 5.312 8.416C6.416 7.328 7.648 6.08 7.648 4.416C7.648 3.296 7.264 2.528 7.024 2.528C6.192 2.528 5.456 4.208 5.312 4.848ZM6.72 21.296L5.792 16.032C4.864 16.256 4.128 17.04 4.128 18.016C4.128 18.8 4.48 19.216 5.104 19.6C5.296 19.728 5.456 19.808 5.456 19.952C5.456 20.096 5.312 20.16 5.184 20.16C3.904 20.16 3.024 18.624 3.024 17.504C3.024 16 4.016 14.464 5.472 14.032C5.36 13.376 5.248 12.624 5.104 11.76C4.864 12 4.608 12.224 4.336 12.464C2.928 13.68 1.552 15.424 1.552 17.376C1.552 19.792 3.504 21.392 5.792 21.392C6.096 21.392 6.4 21.36 6.72 21.296ZM8.992 18.336C8.992 16.912 7.952 15.936 6.512 15.936C6.624 16.64 7.056 19.184 7.392 21.104C8.528 20.64 8.992 19.472 8.992 18.336Z" fill="#1E1E1E"/>
</svg>
